<svg xmlns="http://www.w3.org/2000/svg" viewBox="0 0 765.09 97.92"><defs><style>.cls-1{fill:#f1f1f1;}</style></defs><g id="Layer_2" data-name="Layer 2"><g id="Layer_1-2" data-name="Layer 1"><g id="Logo_hvid" data-name="Logo hvid"><path class="cls-1" d="M115.16,0q37.46,0,37.46,24.46T118.46,48.92q34.15,0,34.16,24.54,0,23.54-37.46,24.46H.15L0,0ZM40.69,20.69V37.77H96.85q13.07-.15,13.07-8.54T96.85,20.69Zm0,37.46V75.23H96.85q13.07-.15,13.07-8.54T96.85,58.15Z"/><path class="cls-1" d="M212.08,62.31q-.54,11.23,21.77,11.23,16.92,0,22.92-4.5t6-12.89V0h47.31V55.77a36.47,36.47,0,0,1-4.69,18.81,36.71,36.71,0,0,1-13.73,13.15,71,71,0,0,1-22.16,7.69,161.74,161.74,0,0,1-30.11,2.5,188.77,188.77,0,0,1-31.58-2.38,86.19,86.19,0,0,1-23.66-7.19q-9.69-4.81-14.8-12.12t-6-13.92Z"/><path class="cls-1" d="M360.54,0h58.93l53.46,97.92H430.62l-9.69-17.53H359.85l-9.69,17.53H307.39ZM370.7,60.85h39.92L390.39,25.38Z"/><path class="cls-1" d="M615.39,0V23.08H525.24V37.69h80.08l-.23,20.62-79.85-.16V73.46l90.15-.07V97.92H482.93V0Z"/><path class="cls-1" d="M627.39,0h137.7V22.08H673.63V42.69h78.15V66.92H673.63v31H627.39Z"/></g></g></g></svg>